<?xml version="1.0" encoding="UTF-8"?>
<svg id="Layer_2" data-name="Layer 2" xmlns="http://www.w3.org/2000/svg" xmlns:xlink="http://www.w3.org/1999/xlink" viewBox="0 0 358.83 318.08">
  <defs>
    <style>
      .cls-1 {
        fill: url(#linear-gradient);
      }
    </style>
    <linearGradient id="linear-gradient" x1="-2.47" y1="159.04" x2="356.36" y2="159.04" gradientUnits="userSpaceOnUse">
      <stop offset="0" stop-color="#80ffdb"/>
      <stop offset=".23" stop-color="#7bf9db"/>
      <stop offset=".51" stop-color="#6deadd"/>
      <stop offset=".82" stop-color="#57d1e0"/>
      <stop offset="1" stop-color="#48bfe3"/>
    </linearGradient>
  </defs>
  <g id="Layer_1-2" data-name="Layer 1">
    <path class="cls-1" d="M0,289.34v-1.4c9.22-3.37,18.64-5.05,23.52-14.7,1.89-3.74,2.15-8.31,3.79-11.64,1.23-2.51,2.36-2.51,3.6,0,1.68,3.41,2.03,8.29,4.04,12.09,2.47,4.66,6.79,8.11,11.57,10.17,2.55,1.1,15.44,3.3,10.09,6.33-6.01,3.42-12.2,2.38-18.06,8.59-5.47,5.8-5.25,13.27-9.44,19.3-1.61,0-3.82-9.47-4.66-11.46-5.17-12.2-13.23-12.92-24.45-17.29ZM139.73,134.84c-33.7,9.01-33.56,56.33-14.87,79.79,32.94,41.33,102.04,31,136.07-3.47,48.77-49.4,36.69-130.57-12.28-175.03C205.42-3.13,144.82-10.36,92.11,14.28c-1.74.81-20.78,10.83-19.86,12.04,10.81,2.05,13.52,16.27,3.73,21.62-4.89,2.67-11.68,2.42-15.32,7.12-3.69,4.77-3.2,13.39-8.09,17.16-5.23,4.03-13.41,3.31-17.11-2.45-.63-.99-2.27-6.89-3.18-6.28C14.1,89.37,2.48,120.81,4.22,152.91c.15,2.83,1.24,13.96,2.76,15.47,1.8,1.79,5.07,1.49,6.27-.82C23.56,97.72,82.35,40.63,155.35,45.27c51.46,3.27,93.33,46.78,89.42,99.23-2.83,37.97-37.12,67.04-75.29,61.28-30.67-4.62-43.59-40.48-20.79-61.28,2.12-1.93,10.09-5.48,6.15-9.3-2.68-2.6-11.65-1.28-15.11-.36ZM315.21,144.81c-1.62,1.15-3.82,15.09-4.71,18.43-17.16,64.58-75.81,112.56-144.54,104.26-48.13-5.81-86.69-48.44-83.19-97.74,2.76-38.82,37.6-68.59,76.58-61.87,27.88,4.81,41.21,36.42,22.66,58.02-2.7,3.15-14.86,9.63-8.03,12.93,10.08,4.87,25.9-4.76,32.21-12.6,21.6-26.84,5.43-67.19-21.96-83.22-50.52-29.56-117.44.92-139.46,52.25-38.44,89.59,44.09,185.87,137.23,177.91,22.23-1.9,43.93-8.33,63.48-18.94l-6.54-2.91c-7.29-4.79-7.46-14.66,0-19.41,3.68-2.35,10.28-2.56,12.88-5.36s2.81-8.32,4.5-11.63c4.13-8.07,16.25-8.84,20.42-.7.53,1.04,3.58,13.12,5.21,11.96.8-2.74,3.71-4.52,5.61-6.68,23.92-27.33,38.02-64.32,35.78-100.97-.12-1.99-1.41-12.66-2.26-13.52-1.16-1.18-4.5-1.17-5.85-.21ZM70.83,36.5c-.95-.78-7.78-2.24-10.06-3.27-11.35-5.11-10.72-12.49-15.53-22.33-4.16,5.72-3.59,12.56-9.01,17.97s-12.08,4.95-17.97,9.01c5.31,3.6,12.47,3.64,17.55,8.39,5.58,5.22,4.89,10.58,7.64,16.2,1.11,2.26,2.08,2.77,3.17.31,3.69-8.29,3.14-15.32,13.01-19.99,1.88-.89,11.57-3.35,11.92-3.87.37-.55.02-1.83-.71-2.43ZM337.23,111.41c5.42-12.12,10.52-9.54,20.16-14.21,5.79-2.81-7.72-5.13-9.99-6.23-10.15-4.94-9.3-11.41-13.04-19.93-2.63-6-4.76,5.99-5.58,8.07-2.61,6.61-7.25,10.33-13.68,12.98-1.59.66-9.13,1.77-8.61,4.01.25,1.07,10.64,3.8,12.66,4.88,4.05,2.17,7.37,6.25,9.2,10.43.91,2.06,2.65,12.2,5.48,10.29.45-.3,2.62-8.56,3.39-10.29ZM267.77,303.56c1.69-2.86,2.04-7.71,4.22-11.21,4.3-6.89,11.05-7.13,17.67-10.39.47-2.03-6.28-2.92-7.7-3.51-5.63-2.38-8.79-4.69-11.36-10.38-.91-2.01-2.39-9.57-4.43-9.6-.63,0-3.39,9.99-4.42,11.73-1.67,2.82-5.58,6.22-8.57,7.56-1.52.68-9.01,2.39-9.14,2.85-.09.31-.01,2.29.07,2.38.33.37,7.52,1.73,9.57,2.71,3.93,1.87,6.9,4.84,8.77,8.77.82,1.72,2.95,9.98,3.38,10.3.84.63,1.56-.55,1.94-1.2Z"/>
  </g>
</svg>